<svg width="98" height="112" viewBox="0 0 98 112" fill="none" xmlns="http://www.w3.org/2000/svg">
<path d="M55.0025 52.1766L65.1797 82.9757L40.2035 91.2306C31.4787 94.1142 22.053 89.3734 19.1696 80.6476L8.9924 49.8485L33.9686 41.5936C42.6935 38.7099 52.1192 43.4508 55.0025 52.1766Z" fill="#AEBABD"/>
<path d="M80.8948 90.4317C86.1734 90.9371 90.8629 87.0677 91.3689 81.7892C91.8749 76.5107 88.0059 71.8219 82.7273 71.3165C77.4486 70.8111 72.7592 74.6805 72.2532 79.959C71.7472 85.2375 75.6161 89.9263 80.8948 90.4317Z" fill="#AEBABD"/>
<path d="M58.0339 39.5054C63.3126 40.0108 68.002 36.1415 68.5081 30.863C69.0141 25.5845 65.1451 20.8957 59.8664 20.3902C54.5878 19.8848 49.8984 23.7542 49.3923 29.0327C48.8863 34.3112 52.7553 39 58.0339 39.5054Z" fill="#AEBABD"/>
<path d="M28.7859 35.6646C34.0646 36.17 38.754 32.3006 39.26 27.0221C39.766 21.7436 35.8971 17.0548 30.6184 16.5494C25.3397 16.044 20.6503 19.9133 20.1443 25.1919C19.6383 30.4704 23.5072 35.1592 28.7859 35.6646Z" fill="#AEBABD"/>
<path d="M72.1824 64.0689C77.461 64.5743 82.1505 60.7049 82.6565 55.4264C83.1625 50.1479 79.2935 45.4591 74.0149 44.9537C68.7362 44.4483 64.0468 48.3176 63.5408 53.5961C63.0348 58.8747 66.9037 63.5634 72.1824 64.0689Z" fill="#AEBABD"/>
</svg>
