<svg width="132" height="102" viewBox="0 0 132 102" fill="none" xmlns="http://www.w3.org/2000/svg">
<path d="M63.9086 41.2087L109.636 41.1843L109.658 78.4033C109.666 91.4048 99.1565 101.969 86.2013 101.976L40.4741 102L40.452 64.7811C40.4443 51.7796 50.9535 41.2156 63.9086 41.2087Z" fill="#06181D"/>
<path d="M126.554 23.3727C129.562 16.5036 126.453 8.4872 119.61 5.46764C112.767 2.44808 104.781 5.56876 101.774 12.4379C98.766 19.307 101.875 27.3233 108.718 30.3429C115.561 33.3625 123.547 30.2418 126.554 23.3727Z" fill="#06181D"/>
<path d="M48.2831 31.5187C51.2906 24.6496 48.1814 16.6332 41.3383 13.6136C34.4953 10.5941 26.5099 13.7148 23.5023 20.5839C20.4947 27.453 23.604 35.4693 30.447 38.4889C37.29 41.5084 45.2755 38.3878 48.2831 31.5187Z" fill="#06181D"/>
<path d="M30.2264 69.1188C33.234 62.2497 30.1247 54.2333 23.2817 51.2137C16.4387 48.1942 8.45321 51.3149 5.44566 58.184C2.4381 65.0531 5.54736 73.0694 12.3904 76.089C19.2334 79.1085 27.2189 75.9879 30.2264 69.1188Z" fill="#06181D"/>
<path d="M87.4147 23.3946C90.4222 16.5255 87.3129 8.50918 80.4699 5.48962C73.6269 2.47006 65.6414 5.59073 62.6339 12.4598C59.6263 19.329 62.7356 27.3453 69.5786 30.3649C76.4216 33.3844 84.4071 30.2638 87.4147 23.3946Z" fill="#06181D"/>
</svg>
